<svg width="40" height="36" viewBox="0 0 40 36" fill="none" xmlns="http://www.w3.org/2000/svg">
<path d="M39.9999 17.9252C39.9999 27.8251 31.0456 35.8504 19.9999 35.8504C8.95427 35.8504 4.84608e-08 27.8251 4.84608e-08 17.9252C4.84608e-08 8.0254 8.95427 0 19.9999 0C31.0456 0 39.9999 8.0254 39.9999 17.9252Z" fill="white"/>
<path d="M33.9205 11.7554C33.1667 10.6298 31.4562 10.2946 30.229 10.1387L29.9335 10.1006C31.3447 11.918 32.5719 13.7825 33.5949 15.647C33.7089 15.4239 33.8003 15.2367 33.8629 15.082C34.4389 13.6839 34.4552 12.5672 33.9205 11.7554Z" fill="#005A9C"/>
<path d="M18.9743 26.4225C19.6505 27.991 20.3592 28.796 21.207 28.9451C22.2676 29.138 23.6713 28.3543 25.7437 26.4113C26.1681 26.0167 26.6264 25.5469 27.1023 25.0054C24.7369 25.0581 21.8869 25.2677 18.6237 25.631C18.6938 25.7801 18.9743 26.4225 18.9743 26.4225Z" fill="#005A9C"/>
<path d="M14.2399 17.7514C15.4883 19.4758 16.6353 21.4255 17.7435 23.7104C18.0478 23.6734 18.3621 23.6297 18.6751 23.5871C21.8056 23.1599 25.2729 22.9783 28.7152 23.0669C30.6172 20.6362 32.2789 18.0194 33.1391 16.4935C31.8869 14.3363 30.3054 12.1915 28.327 9.94809C25.3994 9.71825 22.1024 9.75974 18.7715 10.0681C18.2957 11.0637 17.5482 12.5559 16.5013 14.1827C15.6323 15.536 14.881 16.7054 14.2399 17.7514Z" fill="#005A9C"/>
<path d="M34.1423 5.24818C30.3594 1.8645 25.3306 0 19.9838 0C15.5072 0 11.2711 1.28822 7.73738 3.74021C4.36899 6.07673 1.88466 9.36623 0.72388 13.0179C5.04017 11.1399 10.7113 9.67007 16.7519 8.87852C17.1751 7.69906 17.4681 6.59359 17.7361 5.61481C18.2846 3.5754 18.674 2.10219 19.7396 1.83983C20.8728 1.55506 22.681 2.6695 25.9868 5.68768C25.9868 5.68768 25.9868 5.6888 25.9905 5.6888L25.9918 5.69105L28.4962 8.34485C29.8898 8.43006 31.1721 8.57917 32.2953 8.78098L32.433 8.81014C33.4799 8.99737 35.6749 9.3965 36.5778 10.8372C37.0949 11.6691 37.1012 12.7196 36.589 13.9675C36.0118 15.3981 35.4032 16.6908 34.7421 17.932C35.3131 19.1877 35.7901 20.4434 36.1558 21.6789C36.1683 21.7383 36.1908 21.8347 36.2059 21.9368C36.2534 22.2361 35.9905 22.531 35.9792 22.5422L35.8778 22.6599L35.8252 22.5164C35.4207 21.2293 34.9073 19.9534 34.3163 18.7145C33.4235 20.2965 32.443 21.7663 31.3111 23.1891C34.2212 23.3864 36.7644 23.7721 38.689 24.3125C39.5542 22.2765 40 20.125 40 17.9241C40.0038 13.1367 37.9201 8.63523 34.1423 5.24818Z" fill="#005A9C"/>
<path d="M12.3002 23.2496C12.7735 23.8786 14.0958 24.0625 16.5676 23.836C15.7099 21.8807 14.792 20.1373 13.7727 18.5262C12.4417 20.7696 11.6866 22.4312 12.3002 23.2496Z" fill="#005A9C"/>
<path d="M26.803 8.27869C24.4138 5.75383 23.0452 4.77057 22.0897 4.90623C21.093 5.04862 20.4619 6.41644 19.509 8.49509L19.4764 8.56684C22.0647 8.31794 24.529 8.22039 26.803 8.27869Z" fill="#005A9C"/>
<path d="M29.7808 25.0211C28.6137 26.3217 27.2764 27.6592 25.5609 29.2445C23.0715 31.5306 21.6929 32.5744 20.5834 32.3221C19.8158 32.1439 19.2461 31.3378 18.7352 29.6975C18.3007 28.3218 17.8436 27.0011 17.3641 25.77L15.5409 26.001C11.4462 26.5324 9.171 26.2421 8.3696 25.1097C7.22135 23.4986 9.35507 20.3335 12.2702 16.3713C11.6128 15.5035 10.9328 14.6918 10.1865 13.898C10.1089 13.8229 10.0463 13.7579 9.99995 13.6984L9.89726 13.5863L10.0588 13.5729C10.3268 13.5549 10.5797 13.6312 10.765 13.7915C11.4237 14.4182 12.0723 15.0932 12.6871 15.8006L12.9726 15.406L14.2924 13.6166C15.0212 12.6277 15.626 11.5559 16.157 10.3708C8.69642 11.3787 3.32453 13.4507 1.05557 16.0798C0.177785 17.0395 -0.156551 17.9914 0.0675904 19.7572C0.601022 23.8719 2.43799 27.528 5.879 30.6449C9.62304 34.0308 14.6631 35.8504 19.9836 35.8504C25.8314 35.8504 31.3735 33.5655 35.1814 29.591C36.0968 28.4911 36.3735 27.5774 35.9916 26.8632C35.4118 25.77 33.3232 25.1568 29.7808 25.0211Z" fill="#005A9C"/>
</svg>
